<svg xmlns="http://www.w3.org/2000/svg" width="220" height="215" fill="none" viewBox="0 0 220 215">
  <g clip-path="url(#a)">
    <path fill="#F2F2F2" d="M139.665 48.353h-59.28a5.098 5.098 0 0 0-3.602 1.496 5.11 5.11 0 0 0-1.494 3.605v131.907l-.68.207-14.542 4.459a2.722 2.722 0 0 1-3.393-1.806L13.417 46.758a2.725 2.725 0 0 1 1.803-3.398l22.41-6.87 64.967-19.909 22.41-6.87a2.713 2.713 0 0 1 3.394 1.803l11.057 36.159.207.68Z"/>
    <path fill="#E0E0E0" d="m152.601 47.673-13.327-43.58a5.776 5.776 0 0 0-4.97-4.064 5.763 5.763 0 0 0-2.241.228l-31.507 9.655-64.964 19.913-31.507 9.658A5.782 5.782 0 0 0 .678 42.3a5.793 5.793 0 0 0-.425 4.404L45.8 195.641a5.78 5.78 0 0 0 5.524 4.091 5.653 5.653 0 0 0 1.688-.255l21.598-6.618.68-.211v-.711l-.68.208-21.799 6.683a5.098 5.098 0 0 1-6.362-3.384L.906 46.503a5.1 5.1 0 0 1 1.628-5.429 5.086 5.086 0 0 1 1.752-.941l31.507-9.659 64.963-19.91L132.263.907a5.095 5.095 0 0 1 4.523.779 5.111 5.111 0 0 1 1.84 2.605l13.265 43.383.21.68h.707l-.207-.68Z"/>
    <path fill="#0277BD" d="M41.674 43.471a3.06 3.06 0 0 1-2.925-2.165l-4.375-14.308a3.064 3.064 0 0 1 2.028-3.823L96.168 4.856a3.057 3.057 0 0 1 3.818 2.03l4.376 14.31a3.066 3.066 0 0 1-2.028 3.822l-59.767 18.32c-.289.088-.59.133-.893.133Z"/>
    <path fill="#0277BD" d="M64.595 15.288a6.798 6.798 0 0 0 6.793-6.802 6.798 6.798 0 0 0-6.793-6.801A6.798 6.798 0 0 0 57.8 8.486a6.798 6.798 0 0 0 6.794 6.802Z"/>
    <path fill="#fff" d="M64.594 12.794a4.305 4.305 0 0 0 4.303-4.307 4.305 4.305 0 0 0-4.303-4.307 4.305 4.305 0 0 0-4.302 4.307 4.305 4.305 0 0 0 4.302 4.307Z"/>
    <path fill="#E6E6E6" d="M204.714 197.995H89.896a2.889 2.889 0 0 1-2.887-2.891V57.365a2.895 2.895 0 0 1 2.887-2.89h114.818a2.894 2.894 0 0 1 2.887 2.89v137.739a2.895 2.895 0 0 1-2.887 2.891Z"/>
    <path fill="#E0E0E0" d="M151.891 47.673H80.385a5.78 5.78 0 0 0-4.082 1.696 5.793 5.793 0 0 0-1.693 4.086v138.691l.68-.208V53.455a5.11 5.11 0 0 1 1.493-3.606 5.099 5.099 0 0 1 3.602-1.496H152.1l-.21-.68Zm62.334 0H80.385a5.78 5.78 0 0 0-4.082 1.696 5.793 5.793 0 0 0-1.693 4.086v155.764a5.791 5.791 0 0 0 1.694 4.085 5.779 5.779 0 0 0 4.08 1.696h133.841a5.789 5.789 0 0 0 5.775-5.781V53.455a5.79 5.79 0 0 0-5.775-5.782Zm5.096 161.546a5.109 5.109 0 0 1-5.096 5.101H80.385a5.102 5.102 0 0 1-5.096-5.101V53.455a5.11 5.11 0 0 1 1.494-3.606 5.099 5.099 0 0 1 3.602-1.496h133.84a5.11 5.11 0 0 1 5.096 5.102v155.764Z"/>
    <path fill="#0277BD" d="M178.557 62.637h-62.504a3.058 3.058 0 0 1-3.057-3.061V44.612a3.062 3.062 0 0 1 3.057-3.061h62.504a3.058 3.058 0 0 1 3.057 3.06v14.965a3.058 3.058 0 0 1-3.057 3.06Z"/>
    <path fill="#0277BD" d="M147.305 42.572a6.798 6.798 0 0 0 6.794-6.802 6.798 6.798 0 0 0-6.794-6.802 6.798 6.798 0 0 0-6.794 6.802 6.798 6.798 0 0 0 6.794 6.802Z"/>
    <path fill="#fff" d="M147.305 39.912a4.14 4.14 0 0 0 4.138-4.143 4.14 4.14 0 0 0-4.138-4.143 4.14 4.14 0 0 0-4.138 4.143 4.14 4.14 0 0 0 4.138 4.143Z"/>
  </g>
  <defs>
    <clipPath id="a">
      <path fill="#fff" d="M0 0h220v215H0z"/>
    </clipPath>
  </defs>
</svg>
