<svg xmlns="http://www.w3.org/2000/svg" width="80" height="81" fill="none" viewBox="0 0 80 81">
  <path fill="#E0E0E0" d="M45.335 8.5a5.333 5.333 0 1 1-10.667 0 5.333 5.333 0 0 1 10.667 0ZM22.224 31.611a8.889 8.889 0 1 1 8.008-5.026c-.418.864-.362 1.93.317 2.608.562.562 1.413.672 2.207.643l.134-.003a3.556 3.556 0 1 1-3.492 2.885c.142-.742.087-1.571-.447-2.105-.595-.596-1.539-.624-2.266-.2a8.848 8.848 0 0 1-4.461 1.198Zm44.444-8.889a8.889 8.889 0 0 1-13.35 7.69c-.728-.423-1.672-.395-2.267.2-.534.535-.588 1.364-.446 2.106a3.556 3.556 0 1 1-3.358-2.882c.793.03 1.645-.08 2.206-.643.68-.678.736-1.744.318-2.608a8.889 8.889 0 1 1 16.897-3.863Zm0 35.556a8.889 8.889 0 0 0-13.35-7.69c-.728.423-1.672.395-2.267-.2-.534-.535-.588-1.364-.446-2.106a3.556 3.556 0 1 0-3.358 2.882c.793-.03 1.645.08 2.206.643.68.678.736 1.744.318 2.608a8.889 8.889 0 1 0 16.897 3.862Zm-53.333 0a8.889 8.889 0 0 1 13.35-7.69c.727.423 1.671.395 2.266-.2.534-.535.588-1.364.447-2.106a3.556 3.556 0 1 1 3.358 2.882c-.794-.03-1.645.08-2.207.643-.679.678-.735 1.744-.317 2.608a8.889 8.889 0 1 1-16.897 3.862Zm26.666-14.222a3.556 3.556 0 1 0 0-7.112 3.556 3.556 0 0 0 0 7.112Zm0 18.488a5.333 5.333 0 1 0 0-10.666 5.333 5.333 0 0 0 0 10.666Zm5.334-38.755a5.333 5.333 0 1 1-10.667 0 5.333 5.333 0 0 1 10.667 0Zm11.377 22.044a5.333 5.333 0 1 0 0-10.667 5.333 5.333 0 0 0 0 10.667ZM77.335 40.5a5.333 5.333 0 1 1-10.667 0 5.333 5.333 0 0 1 10.667 0ZM8.001 45.833a5.333 5.333 0 1 0 0-10.666 5.333 5.333 0 0 0 0 10.666Z"/>
  <path fill="#E0E0E0" d="M28.623 40.5a5.333 5.333 0 1 1-10.666 0 5.333 5.333 0 0 1 10.666 0Zm11.378 37.333a5.333 5.333 0 1 0 0-10.666 5.333 5.333 0 0 0 0 10.666Z"/>
</svg>
