<svg xmlns="http://www.w3.org/2000/svg" width="300" height="221" fill="none" viewBox="0 0 300 221">
  <g clip-path="url(#a)">
    <path fill="url(#b)" d="M3.229 105.956c4.737 18.284 14.757 34.089 30.591 41.751 32.918 15.922 107.156 7.711 162.562-1.716 28.66-4.875 53.852-18.33 72.151-37.265l-265.304-2.77Z" opacity=".1"/>
    <path fill="url(#c)" d="M293.776 19.89h-30.4c-1.443 0-2.626-1.067-2.626-2.372 0-1.304 1.183-2.375 2.626-2.375h5.258c-1.445 0-2.626-1.067-2.626-2.375 0-1.307 1.181-2.372 2.626-2.372h-3.752c-1.446 0-2.63-1.068-2.63-2.375s1.184-2.372 2.63-2.372h15.867c-3.521-1.48-7.637-2.53-12.379-3.084-43.268-5.02-58.715-1.7-64.164 1.714a64.005 64.005 0 0 1-22.238 8.808c-26.694 4.976-76.615 10.963-121.863-1.907-22.488-6.408-39.204 4.407-49.22 22.487h288.171c-.376-5.254-1.502-10.108-3.57-14.354a2.774 2.774 0 0 1-1.71.578Z" opacity=".1"/>
    <path fill="url(#d)" d="M.652 67.792a109.493 109.493 0 0 0 1.178 31.9l266.908 8.821a113.081 113.081 0 0 0 18.545-25.553L.652 67.792Zm105.565 22.756h-5.255c1.445 0 2.629 1.07 2.629 2.375s-1.184 2.373-2.629 2.373h-30.4c-1.443 0-2.627-1.068-2.627-2.373 0-1.305 1.184-2.375 2.626-2.375h5.258c-1.445 0-2.626-1.068-2.626-2.372 0-1.305 1.181-2.375 2.627-2.375h-3.756c-1.445 0-2.629-1.068-2.629-2.373 0-1.304 1.184-2.374 2.63-2.374h30.4c1.445 0 2.626 1.067 2.626 2.374 0 1.308-1.181 2.373-2.626 2.373h3.752c1.446 0 2.626 1.067 2.626 2.375 0 1.307-1.18 2.372-2.626 2.372Z" opacity=".1"/>
    <path fill="url(#e)" d="M299.067 33.83 7.669 40.23C4.124 48.465 1.773 57.775.69 67.42h293.272a103.169 103.169 0 0 0 4.233-17.33c.875-5.668 1.224-11.15.872-16.26ZM59.854 54.816H54.6c1.445 0 2.629 1.07 2.629 2.375 0 1.304-1.184 2.375-2.629 2.375H24.2c-1.443 0-2.627-1.07-2.627-2.375s1.184-2.375 2.627-2.375h5.258c-1.446 0-2.627-1.068-2.627-2.373 0-1.304 1.181-2.374 2.627-2.374H25.7c-1.445 0-2.629-1.068-2.629-2.373 0-1.304 1.184-2.375 2.63-2.375h30.4c1.445 0 2.626 1.068 2.626 2.375 0 1.308-1.18 2.373-2.626 2.373h3.752c1.446 0 2.627 1.07 2.627 2.374 0 1.305-1.181 2.373-2.627 2.373Z" opacity=".1"/>
    <path fill="url(#f)" d="M148.655 212.739c67.325 0 121.902-5.014 121.902-11.199 0-6.186-54.577-11.2-121.902-11.2-67.324 0-121.9 5.014-121.9 11.2 0 6.185 54.576 11.199 121.9 11.199Z" opacity=".1"/>
    <path fill="url(#g)" d="M272.897 109.033a.542.542 0 0 1 0-.057v-.084a2.332 2.332 0 0 0-.347-.875 6.898 6.898 0 0 0-2.525-2.386c-1.8-.986-4.273-1.408-4.993-3.29-.221-.583-.227-1.217-.336-1.827a5.525 5.525 0 0 0-3.652-4.148c-.856-.286-1.781-.365-2.612-.72-1.86-.79-2.842-2.737-3.674-4.537l-3.229-6.975c-.818.41-1.876.218-2.643-.297a5.484 5.484 0 0 1-1.71-2.111c-1.11-2.152-1.587-4.59-2.89-6.638-1.304-2.048-3.909-3.666-6.21-2.775a10.8 10.8 0 0 1-1.391.575c-1.972.46-4.154-1.79-5.842-.698-.28.18-.509.43-.663.725a.495.495 0 0 1 0-.055 3.496 3.496 0 0 0-.36 1.422v.344c0 .391.025.79.03 1.187.006.334-.019.668-.076.997v-.028a3.308 3.308 0 0 1-.142.545c-.439 1.177-1.655 1.948-2.225 3.053v-.054c-.064.12-.12.245-.167.373-.101.29-.153.595-.155.902-.049 2.078 2.157 4.033 2.414 6.264.182 1.58.545 2.086 1.89 2.98l.294.196c-.117 0-.237.016-.371.019a.896.896 0 0 0-.155.016 1.668 1.668 0 0 0-1.402.245c-1.031.817-3.469.188-4.552 0-1.083-.188-4.792.319-5.31 2.373-.518 2.053-1.407 6.291-1.407 6.291s0 2.689-.33 3.19a.157.157 0 0 0 0 .109c0 .754.027 5.289-.704 6.457-.18.273-.166.875-.032 1.616-.769.988-1.492 2.143-1.364 2.9.235 1.55 3.382 6.423 7.893 3.813 0 0 2.566-4.687-.663-7.179l.139-.545a199.316 199.316 0 0 0 1.699 2.059s.038.101.098.273h-.098a12.75 12.75 0 0 1 .758 3.562 4.338 4.338 0 0 1-.24 1.31h.085a2.874 2.874 0 0 1-.085.272c-.158.46-.454.861-.848 1.147-2.255 1.596-4.838 12.995-4.838 12.995s-5.116 18.425-6.139 19.474c-.845.86 4.467 3.285 8.454 2.996a6.518 6.518 0 0 0 1.637-.311c.024.273.052.545.079.793.084.817.172 1.574.226 1.811.142.594.423 6.657.423 6.657s-.576 3.938-.436 6.678c0 .188.024.368.04.545l-.496.076c-.753 1.689 2.348 15.778 2.771 16.963.28.934.438 1.899.469 2.874 0 0-.273 1.002-.046 1.549.141.335.233.688.272 1.049 0 0-.185.91.096 1.503.281.594-.046 1.635-.046 1.635s-.093 4.104-.939 6.337a3.65 3.65 0 0 0 .587 3.618c.058.077.122.151.191.22 0 0 4.663.038 5.484 0h.106c.33-.046 1.176-3.739.423-5.518-.753-1.779-.093-3.968-.093-3.968v-3.236s.846-.779 0-2.451c-.845-1.673-.706-2.179-.706-2.179s.941-2.691-.046-3.557c-.988-.866.188-4.151.188-4.151l.333-10.949a4.277 4.277 0 0 0-.532-.136l-.057-.562c-.194-1.982-.36-4.679.07-5.447.431-.768.639-7.474.707-12.134l4.298.164c.09 2.179.185 4.167.245 4.42.142.594.426 6.657.426 6.657s-.578 3.938-.439 6.678c0 .188.024.368.041.545l-.497.076c-.752 1.689 2.348 15.778 2.771 16.963.28.934.439 1.899.472 2.874 0 0-.273 1.002-.049 1.549.141.335.233.688.273 1.049 0 0-.186.91.095 1.503.281.594-.046 1.635-.046 1.635s-.093 4.104-.939 6.337a3.657 3.657 0 0 0 .606 3.612c.059.078.122.151.191.221 0 0 4.663.038 5.484 0h.107c.33-.047 1.175-3.74.422-5.518-.752-1.779-.092-3.969-.092-3.969v-3.23s.845-.779 0-2.451c-.846-1.673-.707-2.179-.707-2.179s.941-2.691-.046-3.557c-.987-.866.188-4.151.188-4.151l.338-10.949a4.096 4.096 0 0 0-.545-.136l-.057-.562c-.194-1.982-.36-4.679.07-5.447.347-.629.546-4.682.636-8.639 0-.273 0-.545.022-.817a42.444 42.444 0 0 0 5.885-.66s-2.299-8.119-1.595-9.44c.302-.569-.134-3.6-.731-6.866a4.784 4.784 0 0 0 2.94 1.062c1.028 1.975 4.156 6.518 5.918 7.218 2.067.817.515-6.428-.469-7.477a8.837 8.837 0 0 1-1.168-1.871c.028-.032.058-.06.085-.09.027-.03.049-7.708-.423-7.569-.472.139-1.033-1.141-1.033-1.141l-1.457-12.766-.611-5.343c.51.375 1.116.615 1.637.988 1.418 1.038 1.882 2.86 2.503 4.473.513 1.326 1.233 2.641 2.414 3.475 1.181.833 2.913 1.054 4.091.21 1.091-.793 1.412-2.223 1.652-3.528 1.98.695 4.383-1.163 4.127-3.192-.063-.501-.248-1.048.013-1.487.524-.866 2.182-.362 2.728-1.217a.912.912 0 0 0 .136-.493.35.35 0 0 0 .011-.074Zm-26.484 7.022c-.03.487.641 4.404 1.186 7.504-.447-1.932-1.344-3.993-3.112-5.407 0 0 0-.098-.021-.272h.021s-.073-.779-.084-1.888c.003-.982.076-1.964.218-2.936v-.024h-.035c0-.082.021-.167.035-.248a8.805 8.805 0 0 1 .663-2.381 6.61 6.61 0 0 1 .504-.855c.292 2.634.652 6.014.625 6.507Zm1.467 9.075c.24 1.337.412 2.277.412 2.277l1.448 9.93v.047c-.78-4.192-1.775-8.61-1.775-8.61a17.143 17.143 0 0 0-.085-3.644Z"/>
    <path fill="#3F3D56" d="M230.131 88.41c-.272-2.517-3-4.687-2.182-7.081.445-1.305 1.836-2.103 2.305-3.4.311-.855.172-1.794.175-2.704.002-.91.215-1.926.973-2.43 1.636-1.09 3.742 1.153 5.651.695a9.997 9.997 0 0 0 1.344-.572c2.229-.885 4.749.727 6 2.764 1.252 2.038 1.721 4.467 2.796 6.608a5.428 5.428 0 0 0 1.652 2.1c.742.512 1.757.705 2.559.297l3.122 6.945c.818 1.79 1.757 3.729 3.546 4.516.801.351 1.696.43 2.525.716a5.453 5.453 0 0 1 3.545 4.127c.107.61.11 1.242.325 1.822.695 1.874 3.087 2.293 4.83 3.268a6.757 6.757 0 0 1 2.454 2.372c.273.472.508 1.09.216 1.553-.527.85-2.127.349-2.635 1.212-.256.436-.076.98 0 1.482.249 2.018-2.078 3.867-3.992 3.175-.232 1.3-.546 2.724-1.598 3.511-1.132.845-2.809.621-3.952-.207-1.143-.828-1.836-2.138-2.332-3.459-.603-1.607-1.053-3.421-2.424-4.453-.497-.37-1.091-.61-1.577-.983-1.091-.834-1.636-2.209-2.026-3.541-.505-1.661-.906-3.369-1.636-4.938-.731-1.569-1.888-3.029-3.472-3.745-1.487-.667-3.199-.624-4.735-1.166-2.642-.931-4.598-3.151-7.227-4.197a11.684 11.684 0 0 1-2.372-1.34c-1.323-.869-1.683-1.373-1.858-2.947Z"/>
    <path fill="#000" d="M230.377 77.395c.056-.106.105-.216.147-.33.308-.854.172-1.794.175-2.704a4.814 4.814 0 0 1 .084-.904 3.802 3.802 0 0 0-.357 1.721c-.003.733.084 1.501-.049 2.217Zm33.621 41.136c-1.132.841-2.809.621-3.952-.21-1.143-.831-1.838-2.135-2.321-3.462-.602-1.607-1.05-3.421-2.424-4.453-.494-.37-1.091-.613-1.574-.983-1.091-.834-1.636-2.209-2.029-3.527-.504-1.662-.903-3.369-1.636-4.938-.734-1.569-1.885-3.029-3.472-3.745-1.484-.667-3.196-.624-4.732-1.166-2.645-.931-4.601-3.151-7.227-4.197a11.835 11.835 0 0 1-2.375-1.34c-1.293-.89-1.637-1.395-1.827-2.966-.273-2.359-2.673-4.415-2.3-6.638a3.56 3.56 0 0 0-.16.37c-.819 2.398 1.909 4.568 2.181 7.082.178 1.572.546 2.076 1.828 2.966.737.537 1.534.986 2.375 1.34 2.626 1.046 4.582 3.269 7.227 4.197 1.536.545 3.248.499 4.732 1.166 1.587.716 2.727 2.179 3.472 3.745.744 1.566 1.142 3.269 1.636 4.938.401 1.318.927 2.694 2.029 3.527.494.371 1.091.613 1.574.984 1.363 1.032 1.821 2.846 2.424 4.453.496 1.321 1.192 2.628 2.335 3.456 1.142.828 2.82 1.051 3.951.21.723-.545 1.091-1.376 1.334-2.266a3.354 3.354 0 0 1-1.069 1.457Zm5.604-8.169a1.157 1.157 0 0 0-.131.637c.617-.607 2.008-.25 2.493-1.032a.993.993 0 0 0 .126-.64c-.633.599-2.024.243-2.488 1.035Zm-4.006 4.658c-.052.272-.104.564-.169.847 1.669.52 3.597-.817 3.87-2.506-.663 1.3-2.299 2.168-3.701 1.659Z" opacity=".1"/>
    <path fill="#FBF6F3" d="M233.655 89.72s.908 1.83-1.773 1.869c-2.681.038 1.726 11.886 1.726 11.886l4.457 5.665 5.544-2.996.319-8.264.409-4.992s-5.181-1.68-4.227-3.903c.955-2.223-6.455.735-6.455.735Z"/>
    <path fill="#335081" d="M249.748 138.026s3.273 3.217 7.091-1.051l-2.932-3.108h-3.709l-.45 4.159Z"/>
    <path fill="#000" d="m250.103 133.867-.45 4.159s3.272 3.217 7.091-1.051" opacity=".1"/>
    <path fill="#FBF6F3" d="M255.609 134.435s1.317 3.45 2.272 4.494c.954 1.043 2.454 8.26.455 7.443-1.999-.817-5.817-6.899-6.046-7.942-.229-1.043-.316-3.995-.316-3.995h3.635Z"/>
    <path fill="#335081" d="m227.02 152.138 17.634.681-2.046-7.447-8.882-.18-6.706 6.946Z"/>
    <path fill="#000" d="m229.471 152.138 17.637.681-2.045-7.447-8.885-.18-6.707 6.946Z" opacity=".1"/>
    <path fill="#FBF6F3" d="M232.79 164.43c-.417.776-.256 3.461-.068 5.447.12 1.264.251 2.236.251 2.236s-6.592 2.043-7.59.272c-.253-.449-.379-1.236-.423-2.159-.136-2.724.423-6.649.423-6.649s-.273-6.036-.409-6.627c-.054-.237-.139-.988-.221-1.803a208.43 208.43 0 0 1-.234-2.554l8.999-4.767s0 .894-.016 2.269c-.049 4.32-.194 13.381-.712 14.335Z"/>
    <path fill="#000" d="M232.973 172.113s-6.592 2.043-7.59.273c-.253-.45-.379-1.237-.423-2.16 1.364-.207 5.515-.779 7.762-.349.12 1.264.251 2.236.251 2.236Z" opacity=".1"/>
    <path fill="#3F3D56" d="M233.199 206.431h-.103c-.794.03-5.305 0-5.305 0a2.394 2.394 0 0 1-.185-.218 3.713 3.713 0 0 1-.586-3.595c.818-2.225.908-6.311.908-6.311s.319-1.043.046-1.634-.093-1.498-.093-1.498a3.875 3.875 0 0 0-.272-1.043c-.227-.545.046-1.545.046-1.545a11.542 11.542 0 0 0-.455-2.859c-.41-1.18-3.41-15.207-2.681-16.887 0 0 6.362-1.09 8.773-.272l-.319 10.894s-1.137 3.269-.183 4.132c.955.863.047 3.541.047 3.541s-.137.498.681 2.179c.819 1.68 0 2.451 0 2.451v3.222s-.635 2.179.09 3.949c.726 1.771-.09 5.437-.409 5.494Z"/>
    <path fill="#FBF6F3" d="M245.687 164.43c-.417.776-.256 3.462-.068 5.447.12 1.264.251 2.236.251 2.236s-6.592 2.043-7.59.273c-.253-.45-.379-1.237-.422-2.16-.137-2.724.422-6.649.422-6.649s-.272-6.035-.409-6.626c-.073-.319-.202-3.358-.303-6.085-.084-2.326-.152-4.428-.152-4.428l9 1.389s0 3.952-.112 8.013c-.098 3.938-.281 7.974-.617 8.59Z"/>
    <path fill="#000" d="M245.87 172.113s-6.592 2.043-7.59.273c-.253-.45-.379-1.237-.422-2.16 1.363-.207 5.514-.779 7.761-.349.12 1.264.251 2.236.251 2.236Z" opacity=".1"/>
    <path fill="#3F3D56" d="M246.096 206.431h-.103c-.794.03-5.305 0-5.305 0a2.394 2.394 0 0 1-.185-.218 3.709 3.709 0 0 1-.586-3.595c.818-2.236.9-6.322.9-6.322s.319-1.043.046-1.634-.093-1.498-.093-1.498a3.84 3.84 0 0 0-.273-1.043c-.226-.545.047-1.544.047-1.544a11.498 11.498 0 0 0-.456-2.86c-.409-1.18-3.409-15.206-2.68-16.887 0 0 6.362-1.089 8.773-.272l-.319 10.894s-1.137 3.269-.183 4.132c.955.864.047 3.541.047 3.541s-.137.498.681 2.179c.819 1.68 0 2.451 0 2.451v3.222s-.635 2.179.09 3.95c.726 1.77-.081 5.447-.401 5.504Z"/>
    <path fill="#000" d="M237.2 91.86a6.404 6.404 0 0 0 6.409-6.4c0-3.535-2.869-6.4-6.409-6.4a6.405 6.405 0 0 0-6.409 6.4c0 3.535 2.87 6.4 6.409 6.4Z" opacity=".1"/>
    <path fill="#FBF6F3" d="M237.2 91.588a6.405 6.405 0 0 0 6.409-6.4c0-3.535-2.869-6.4-6.409-6.4a6.405 6.405 0 0 0-6.409 6.4c0 3.535 2.87 6.4 6.409 6.4Z"/>
    <path fill="#000" d="m224.519 152.593 8.999-4.767s0 .894-.016 2.269a695.17 695.17 0 0 1-5.203 3.078 279.865 279.865 0 0 1-2.916 1.688c-.201.11-.412.201-.63.273-.12-1.196-.234-2.541-.234-2.541Zm21.897-4.777s-.001 3.952-.112 8.013h-.033c-.672.024-1.346.003-2.015-.063-1.176-.125-2.117-.436-2.455-1.051-.684-1.199-2.602-2.724-4.222-3.86-.084-2.326-.152-4.428-.152-4.428l8.989 1.389Z" opacity=".1"/>
    <path fill="#335081" d="M244.741 113.201a25.894 25.894 0 0 0-.131 5.346c4.135 3.405 3.363 10.576 3.363 10.576s3.182 14.528 2.501 15.844c-.682 1.315 1.543 9.396 1.543 9.396-1.897.359-3.817.58-5.746.66-.672.023-1.346.002-2.015-.063-1.176-.125-2.117-.436-2.455-1.051-1.271-2.223-6.772-5.538-6.772-5.538s-3.485 2.087-6.73 3.985a281.04 281.04 0 0 1-2.916 1.689 5.398 5.398 0 0 1-2.277.623c-3.859.286-9-2.127-8.182-2.982 1.001-1.046 5.957-19.384 5.957-19.384s2.498-11.35 4.679-12.938c.383-.288.668-.686.819-1.141.747-2.072-.502-5.395-.502-5.395s-7.045-8.67-6.728-9.171c.316-.501.319-3.176.319-3.176s.864-4.221 1.363-6.264c.5-2.043 4.091-2.544 5.136-2.361 1.044.182 3.406.817 4.404 0 .998-.817 2.684.318 2.684.318l4.14 1.139 3.722-2.18s3.731.191 4.05.69c.319.498 5.228 1.454 5.228 1.454 2.499 1.678 2.409 9.669 2.409 9.669s-6 5.219-7.228 7.899a9.032 9.032 0 0 0-.635 2.356Z"/>
    <path fill="#335081" d="m251.245 101.84 1.364 1.089 1.41 12.665 1.407 12.712s.546 1.272 1.001 1.135c.456-.136.409 7.534.409 7.534s-5.22-3.206-7.091 1.051l-1.456-10.265s-1.865-10.486-1.819-11.303c.046-.817-.954-9.669-.954-9.669l5.729-4.949Zm-31.09.592-1.001 1.225s.093 5.265-.682 6.537c-.774 1.272 2.139 8.716 3.229 8.261 1.091-.455 3.546-12.074 3.546-12.21 0-.136-5.092-3.813-5.092-3.813Z"/>
    <path fill="#335081" d="M220.065 109.921s-3.183 3.222-2.956 4.766c.226 1.545 3.272 6.395 7.636 3.789 0 0 4.047-7.602-4.68-8.555Z"/>
    <path fill="#000" d="M233.096 206.441c-.794.03-5.305 0-5.305 0a2.278 2.278 0 0 1-.185-.219c1.153-.392 3.646-.981 5.49.219Zm12.902 0c-.793.03-5.304 0-5.304 0a2.443 2.443 0 0 1-.186-.219c1.149-.392 3.641-.981 5.49.219Zm-17.378-79.84c-.695 6.662-.466 19.882-.321 25.754a264.04 264.04 0 0 1-2.916 1.689 5.413 5.413 0 0 1-2.277.624c-.289-1.776 3.714-20.016 5.514-28.067Zm.851-3.781c-.019.096-.349 1.545-.851 3.781.197-1.91.469-3.28.851-3.781Zm11.073-.718s3.864 24.24-7.579 27.236c-.003-.011 7.917-1.212 7.579-27.236Z" opacity=".1"/>
    <path fill="#000" d="M246.271 155.022a15.23 15.23 0 0 1-2.015-.062l-3.088-33.145c1.969 1.286 4.326 24.807 5.103 33.207Zm-13.843-73.598a1.69 1.69 0 0 1 .608.062c.289.144.55.34.769.578a2.739 2.739 0 0 0 2.602.504c.311-.14.641-.231.979-.273.521 0 .971.381 1.241.817.27.436.409.954.64 1.42.232.465.603.906 1.113 1.02.245.01.485.066.709.164a1 1 0 0 1 .306.422c.425.918.763 2.002 1.672 2.451a2.5 2.5 0 0 0 1.066.232c.374.028.749-.04 1.091-.196.335-.187.613-.463.802-.798.567-.937.632-2.097.499-3.184a8.76 8.76 0 0 0-1.427-3.83 8.002 8.002 0 0 0-7.322-3.374c-.493.055-.98.146-1.459.272-1.735.463-3.437 1.33-4.489 2.781a9.49 9.49 0 0 1-.838 1.03c.478-.047.958-.088 1.438-.098Z" opacity=".1"/>
    <path fill="#3F3D56" d="M232.428 81.151a1.69 1.69 0 0 1 .608.063c.289.144.55.34.769.577a2.74 2.74 0 0 0 2.602.504c.311-.139.641-.23.979-.272.521 0 .971.381 1.241.817.27.436.409.953.64 1.419.232.466.603.907 1.113 1.021.245.01.485.065.709.164a1 1 0 0 1 .306.422c.425.918.763 2.002 1.672 2.451a2.5 2.5 0 0 0 1.066.232c.374.027.749-.04 1.091-.197.335-.187.613-.463.802-.798.567-.936.632-2.097.499-3.183a8.76 8.76 0 0 0-1.427-3.83 8.002 8.002 0 0 0-7.322-3.375c-.493.056-.98.147-1.459.273-1.735.463-3.437 1.329-4.489 2.78a9.49 9.49 0 0 1-.838 1.03 19.76 19.76 0 0 1 1.438-.098Z"/>
    <path fill="#000" d="M225.473 96.393s.319 2.543-.772 3.178c-1.091.635.772-3.178.772-3.178Zm23.135 19.703s2.591-3.813 2.957-2.723c.365 1.089-2.957 2.723-2.957 2.723Zm.183 1.269s2.555-3.132 2.801-1.907c.245 1.226-2.801 1.907-2.801 1.907Zm-7.505-3.729a4.15 4.15 0 0 1-2.569-.844h-.224a4.037 4.037 0 0 1-2.806 1.054 3.967 3.967 0 0 1-1.575-.285c-.5-.2-.955-.5-1.335-.881h-.298a4.287 4.287 0 0 1-5.53-.1l-1.067-.019s1.249 3.322.502 5.395l18.226.324a25.894 25.894 0 0 1 .131-5.346v-.025l-1.001-.019a4.19 4.19 0 0 1-2.454.746Z" opacity=".1"/>
    <path fill="#000" d="M241.286 114.181a4.15 4.15 0 0 1-2.569-.844h-.224a4.037 4.037 0 0 1-2.806 1.054 3.967 3.967 0 0 1-1.575-.285c-.5-.2-.955-.5-1.335-.881h-.298a4.287 4.287 0 0 1-5.53-.1l-1.067-.02s1.249 3.323.502 5.396l18.226.324a25.894 25.894 0 0 1 .131-5.346v-.025l-1.001-.019a4.19 4.19 0 0 1-2.454.746Z" opacity=".1"/>
    <path fill="#3F3D56" d="M241.286 113.909a4.15 4.15 0 0 1-2.569-.844h-.224a4.042 4.042 0 0 1-2.806 1.054 3.983 3.983 0 0 1-2.91-1.166h-.298a4.28 4.28 0 0 1-2.783.96 4.282 4.282 0 0 1-2.747-1.061l-1.067-.019s1.249 3.323.502 5.396l18.226.324a25.904 25.904 0 0 1 .131-5.347v-.024l-1.001-.019a4.205 4.205 0 0 1-2.454.746Z"/>
    <path fill="#000" d="M240.476 95.747s3.837.246 3.861.791c.025.545-3.861-.79-3.861-.79Zm-9.322-2.323s-3.837.245-3.862.79c-.024.546 3.862-.79 3.862-.79Zm14.664 11.137c-.038-.027-.076-.049-.114-.074.982.883.818 2.811-.388 4.402-1.205 1.59-3.035 2.252-4.148 1.539.036.03.066.062.104.092 1.091.834 3 .18 4.26-1.465 1.26-1.645 1.383-3.658.286-4.494Zm-21.078 4.124c-.971-1.749-.846-3.68.253-4.413-.041.02-.084.036-.125.058-1.206.67-1.364 2.677-.366 4.486.998 1.808 2.798 2.723 4.004 2.064a.982.982 0 0 0 .114-.076c-1.202.545-2.91-.371-3.88-2.119Zm1.298-14.745-.352.545-.897-.477.471-.726c.312.148.58.374.778.657Z" opacity=".1"/>
    <path fill="#8BE7C9" d="M220.338 114.097s.799-3.754-.273-4.947-.728-7.446.908-7.31c1.637.136 4.091 5.082 3.682 6.128-.409 1.046-1.955 6.401-1.955 6.401l-2.362-.272Z"/>
    <path fill="#000" d="M245.998 87.018c-.188.334-.466.61-.802.798a2.227 2.227 0 0 1-1.09.196 2.503 2.503 0 0 1-1.067-.232c-.908-.452-1.246-1.536-1.672-2.451a.989.989 0 0 0-.278-.43 1.947 1.947 0 0 0-.701-.172c-.51-.114-.878-.558-1.112-1.021-.235-.463-.374-.975-.641-1.42-.268-.443-.72-.833-1.241-.817a3.356 3.356 0 0 0-.979.287 2.753 2.753 0 0 1-2.602-.507 2.657 2.657 0 0 0-.769-.578 1.69 1.69 0 0 0-.608-.062c-.314 0-.625.03-.938.054a7 7 0 0 1-.499.583c.477-.04.957-.082 1.437-.093a1.69 1.69 0 0 1 .608.063c.289.144.55.34.769.578a2.753 2.753 0 0 0 2.602.506c.31-.144.64-.24.979-.286.521 0 .971.382 1.241.817.27.436.409.954.641 1.42.231.465.602.906 1.112 1.02.243.014.48.072.701.172a1 1 0 0 1 .306.422c.425.918.763 2.002 1.671 2.452.335.154.699.233 1.067.231.374.028.749-.04 1.091-.196.335-.187.613-.463.801-.798.424-.77.613-1.646.546-2.522a4.161 4.161 0 0 1-.573 1.986Z" opacity=".1"/>
    <path fill="#335081" d="M221.546 117.074c1.356 0 2.454-.744 2.454-1.662 0-.917-1.098-1.661-2.454-1.661s-2.455.744-2.455 1.661c0 .918 1.099 1.662 2.455 1.662Z"/>
    <path fill="url(#h)" d="M141.54 207.894c46.467 0 84.135-37.619 84.135-84.025 0-46.405-37.668-84.024-84.135-84.024-46.466 0-84.135 37.619-84.135 84.024 0 46.406 37.669 84.025 84.135 84.025Z"/>
    <path fill="#444053" d="M185.686 166.094c0 13.264-20.88 1.133-43.265 1.133s-45.026 11.63-45.026-1.634c0-7.564 7.216-18.082 17.568-25.722 7.8-5.758 17.378-9.882 27-9.882 9.894 0 19.587 4.464 27.318 10.593 9.758 7.727 16.405 18.109 16.405 25.512Z"/>
    <path fill="#F6F8FB" d="M169.279 140.576c-11.899-1.79-33.42-3.971-54.316-.711 7.8-5.758 17.378-9.882 27-9.882 9.892 0 19.584 4.464 27.316 10.593Z"/>
    <path fill="#000" d="M97.395 64.556s-25.344 16.18-25.137 41.492c.207 25.311 25.137-41.492 25.137-41.492Z" opacity=".05"/>
    <path fill="url(#i)" d="M225.642 18.856s-22.963-1.381-20.255 14.688c0 0-.545 2.839 2.04 4.13 0 0 .041-1.19 2.354-.788.824.138 1.661.178 2.495.12a5.184 5.184 0 0 0 3.049-1.258s6.455-2.661 8.967-13.199c0 0 1.858-2.299 1.784-2.887l-3.876 1.65s1.323 2.792.273 5.113c0 0-.125-5.009-.87-4.903-.15.025-2.012.967-2.012.967s2.277 4.865.545 8.397c0 0 .652-5.992-1.271-8.045l-2.727 1.59s2.662 5.023.856 9.122c0 0 .464-6.286-1.429-8.735l-2.473 1.926s2.5 4.951.976 8.35c0 0-.199-7.318-1.511-7.871 0 0-2.163 1.907-2.493 2.688 0 0 1.713 3.593.652 5.488 0 0-.652-4.875-1.186-4.902 0 0-2.155 3.23-2.381 5.447 0 0 .095-3.296 1.857-5.755 0 0-2.083.357-3.297 1.708 0 0 .335-2.285 3.818-2.484 0 0 1.781-2.451 2.258-2.599 0 0-3.477-.291-5.585.643 0 0 1.854-2.154 6.221-1.176l2.454-1.989s-4.576-.626-6.518.066c0 0 2.234-1.907 7.175-.518l2.659-1.588s-3.902-.839-6.229-.544c0 0 2.455-1.321 7.007.111l1.909-.852s-2.861-.561-3.698-.648c-.838-.088-.881-.322-.881-.322a9.926 9.926 0 0 1 5.381.624s4.03-1.512 3.962-1.765Z"/>
    <path fill="url(#j)" d="M202.09 11.712s-10.363-.627-9.153 6.635c0 0-.242 1.282.922 1.865 0 0 .017-.544 1.064-.354.372.061.75.08 1.126.055a2.37 2.37 0 0 0 1.38-.57s2.916-1.203 4.05-5.964c0 0 .84-1.038.818-1.305l-1.751.746s.6 1.261.129 2.31c0 0-.058-2.263-.393-2.209-.068 0-.911.436-.911.436s1.031 2.198.254 3.794c0 0 .294-2.707-.573-3.636l-1.233.719s1.203 2.271.387 4.124c0 0 .208-2.841-.646-3.947l-1.118.869s1.129 2.236.442 3.772c0 0-.09-3.306-.685-3.557 0 0-.976.86-1.126 1.215 0 0 .774 1.634.294 2.481 0 0-.294-2.203-.545-2.212 0 0-.974 1.457-1.075 2.452a5.299 5.299 0 0 1 .838-2.601 2.922 2.922 0 0 0-1.489.77s.15-1.032 1.729-1.122c0 0 .804-1.106 1.02-1.174 0 0-1.571-.13-2.523.292 0 0 .837-.975 2.812-.545l1.091-.896s-2.068-.272-2.946.027c0 0 1.009-.86 3.243-.231l1.2-.72s-1.762-.378-2.815-.242c0 0 1.11-.596 3.167.052l.859-.387s-1.293-.253-1.669-.291c-.377-.038-.401-.145-.401-.145a4.475 4.475 0 0 1 2.427.273s1.83-.665 1.8-.78Z"/>
    <path fill="url(#k)" d="M292.656 198.829c4.056 0 7.344-.555 7.344-1.239 0-.685-3.288-1.239-7.344-1.239-4.057 0-7.345.554-7.345 1.239 0 .684 3.288 1.239 7.345 1.239Z" opacity=".1"/>
    <path fill="url(#l)" d="M12.755 219.444c4.056 0 7.345-.554 7.345-1.239 0-.684-3.289-1.239-7.345-1.239-4.056 0-7.344.555-7.344 1.239 0 .685 3.288 1.239 7.344 1.239Z" opacity=".1"/>
    <path fill="url(#m)" d="M55.39 221c4.056 0 7.344-.555 7.344-1.239 0-.685-3.288-1.24-7.344-1.24-4.056 0-7.345.555-7.345 1.24 0 .684 3.289 1.239 7.345 1.239Z" opacity=".1"/>
    <path fill="url(#n)" d="M276.581 212.723c6.057 0 10.966-.829 10.966-1.852 0-1.023-4.909-1.852-10.966-1.852-6.056 0-10.966.829-10.966 1.852 0 1.023 4.91 1.852 10.966 1.852Z"/>
    <path fill="url(#o)" d="M281.114 207.845a3.188 3.188 0 0 0 1.047-1.577c.134-.624-.133-1.376-.731-1.604-.671-.256-1.388.209-1.931.678-.542.468-1.167 1.002-1.879.904a2.853 2.853 0 0 0 .884-2.672 1.132 1.132 0 0 0-.245-.545c-.374-.397-1.048-.228-1.495.085-1.418.997-1.814 2.92-1.822 4.652-.142-.624-.022-1.275-.024-1.907-.003-.632-.18-1.362-.72-1.697a2.191 2.191 0 0 0-1.091-.256c-.638-.024-1.347.039-1.784.504-.545.58-.401 1.55.071 2.179.472.629 1.187 1.038 1.844 1.476.529.315.98.744 1.32 1.256.039.072.072.148.098.226h3.995a11.109 11.109 0 0 0 2.463-1.702Z"/>
    <path fill="url(#p)" d="M16.183 185.007s1.498 1.955-.692 4.902-3.996 5.448-3.273 7.289c0 0 3.303-5.486 6-5.565 2.697-.078.922-3.328-2.035-6.626Z"/>
    <path fill="#000" d="M16.183 185.007c.13.189.233.395.306.613 2.623 3.077 4.02 5.951 1.5 6.022-2.351.068-5.182 4.262-5.845 5.322.024.082.05.163.082.242 0 0 3.303-5.485 6-5.564 2.697-.079.914-3.337-2.043-6.635Z" opacity=".1"/>
    <path fill="#FFD037" d="M18.968 187.499c0 .689-.08 1.247-.175 1.247-.095 0-.171-.544-.171-1.247 0-.703.095-.365.193-.365s.153-.324.153.365Z"/>
    <path fill="#FFD037" d="M19.912 188.322c-.606.33-1.132.529-1.179.445-.046-.085.41-.418 1.015-.748s.365-.09.412 0c.046.09.368-.027-.248.303Z"/>
    <path fill="url(#q)" d="M8.269 185.007s-1.497 1.955.69 4.902c2.187 2.947 3.995 5.448 3.273 7.289 0 0-3.306-5.486-6-5.565-2.695-.078-.922-3.328 2.037-6.626Z"/>
    <path fill="#000" d="M8.269 185.007a2.347 2.347 0 0 0-.306.613c-2.623 3.077-4.022 5.951-1.5 6.022 2.349.068 5.182 4.262 5.842 5.322a2.451 2.451 0 0 1-.079.242s-3.305-5.485-6-5.564c-2.694-.079-.916-3.337 2.043-6.635Z" opacity=".1"/>
    <path fill="#FFD037" d="M5.484 187.499c0 .689.077 1.247.172 1.247.096 0 .172-.544.172-1.247 0-.703-.095-.365-.19-.365-.096 0-.154-.324-.154.365Z"/>
    <path fill="#FFD037" d="M4.527 188.322c.606.33 1.135.529 1.181.445.046-.085-.409-.418-1.014-.748-.606-.33-.369-.09-.412 0-.044.09-.36-.027.245.303Z"/>
    <path fill="#A8A8A8" d="M5.962 196.95s4.189-.128 5.454-1.027c1.266-.898 6.445-1.969 6.758-.544.314 1.424 6.295 7.163 1.566 7.201-4.73.038-10.988-.738-12.248-1.503-1.26-.766-1.53-4.127-1.53-4.127Z"/>
    <path fill="#000" d="M19.819 202.092c-4.73.038-10.988-.738-12.248-1.503-.96-.583-1.342-2.678-1.47-3.645h-.14s.273 3.375 1.525 4.14c1.252.766 7.52 1.542 12.248 1.504 1.364 0 1.836-.499 1.811-1.215-.19.439-.709.711-1.726.719Z" opacity=".2"/>
    <path fill="#444053" d="M111.628 112.852c1.601-.09 9.136-.656 13.922-3.383a5.42 5.42 0 0 1 2.529-.743c1.521-.044 3.272.591 2.151 4.142-1.816 5.81-12.362 12.347-18.907 11.984-6.295-.348-13.762-2.881-18.693-11.788a5.441 5.441 0 0 1-.673-2.802c.057-1.798.711-4.05 4.09-1.539 4.566 3.391 13.227 4.034 14.965 4.129.205.011.411.011.616 0Zm60.544 0c1.601-.09 9.137-.656 13.923-3.383a5.416 5.416 0 0 1 2.528-.743c1.522-.044 3.273.591 2.152 4.142-1.817 5.81-12.363 12.347-18.908 11.984-6.295-.348-13.762-2.881-18.693-11.788a5.44 5.44 0 0 1-.673-2.802c.057-1.798.712-4.05 4.091-1.539 4.565 3.391 13.227 4.034 14.964 4.129.205.011.411.011.616 0Z"/>
  </g>
  <defs>
    <linearGradient id="b" x1="268.533" x2="164.763" y1="156.7" y2="-.604" gradientUnits="userSpaceOnUse">
      <stop stop-color="#1797CE"/>
      <stop offset="1" stop-color="#2CB1EA"/>
    </linearGradient>
    <linearGradient id="c" x1="299.056" x2="247.135" y1="33.667" y2="-95.192" gradientUnits="userSpaceOnUse">
      <stop stop-color="#1797CE"/>
      <stop offset="1" stop-color="#2CB1EA"/>
    </linearGradient>
    <linearGradient id="d" x1="287.283" x2="215.799" y1="108.513" y2="-37.708" gradientUnits="userSpaceOnUse">
      <stop stop-color="#1797CE"/>
      <stop offset="1" stop-color="#2CB1EA"/>
    </linearGradient>
    <linearGradient id="e" x1="299.203" x2="248.795" y1="67.421" y2="-62.461" gradientUnits="userSpaceOnUse">
      <stop stop-color="#1797CE"/>
      <stop offset="1" stop-color="#2CB1EA"/>
    </linearGradient>
    <linearGradient id="f" x1="270.557" x2="241.86" y1="212.739" y2="122.178" gradientUnits="userSpaceOnUse">
      <stop stop-color="#1797CE"/>
      <stop offset="1" stop-color="#2CB1EA"/>
    </linearGradient>
    <linearGradient id="g" x1="243.306" x2="243.306" y1="206.45" y2="71.891" gradientUnits="userSpaceOnUse">
      <stop stop-color="gray" stop-opacity=".25"/>
      <stop offset=".54" stop-color="gray" stop-opacity=".12"/>
      <stop offset="1" stop-color="gray" stop-opacity=".1"/>
    </linearGradient>
    <linearGradient id="h" x1="225.675" x2="25.49" y1="207.894" y2="149.776" gradientUnits="userSpaceOnUse">
      <stop stop-color="#1797CE"/>
      <stop offset="1" stop-color="#2CB1EA"/>
    </linearGradient>
    <linearGradient id="i" x1="226.078" x2="201.632" y1="37.674" y2="29.809" gradientUnits="userSpaceOnUse">
      <stop stop-color="#1797CE"/>
      <stop offset="1" stop-color="#2CB1EA"/>
    </linearGradient>
    <linearGradient id="j" x1="202.298" x2="191.243" y1="20.212" y2="16.652" gradientUnits="userSpaceOnUse">
      <stop stop-color="#1797CE"/>
      <stop offset="1" stop-color="#2CB1EA"/>
    </linearGradient>
    <linearGradient id="k" x1="300" x2="295.206" y1="198.829" y2="190.592" gradientUnits="userSpaceOnUse">
      <stop stop-color="#1797CE"/>
      <stop offset="1" stop-color="#2CB1EA"/>
    </linearGradient>
    <linearGradient id="l" x1="20.1" x2="15.306" y1="219.444" y2="211.207" gradientUnits="userSpaceOnUse">
      <stop stop-color="#1797CE"/>
      <stop offset="1" stop-color="#2CB1EA"/>
    </linearGradient>
    <linearGradient id="m" x1="62.734" x2="57.941" y1="221" y2="212.763" gradientUnits="userSpaceOnUse">
      <stop stop-color="#1797CE"/>
      <stop offset="1" stop-color="#2CB1EA"/>
    </linearGradient>
    <linearGradient id="n" x1="287.547" x2="280.38" y1="212.723" y2="200.418" gradientUnits="userSpaceOnUse">
      <stop stop-color="#1797CE"/>
      <stop offset="1" stop-color="#2CB1EA"/>
    </linearGradient>
    <linearGradient id="o" x1="282.195" x2="270.448" y1="209.547" y2="203.885" gradientUnits="userSpaceOnUse">
      <stop stop-color="#1797CE"/>
      <stop offset="1" stop-color="#2CB1EA"/>
    </linearGradient>
    <linearGradient id="p" x1="19.548" x2="10.181" y1="197.198" y2="195.529" gradientUnits="userSpaceOnUse">
      <stop stop-color="#1797CE"/>
      <stop offset="1" stop-color="#2CB1EA"/>
    </linearGradient>
    <linearGradient id="q" x1="12.393" x2="3.029" y1="197.198" y2="195.53" gradientUnits="userSpaceOnUse">
      <stop stop-color="#1797CE"/>
      <stop offset="1" stop-color="#2CB1EA"/>
    </linearGradient>
    <clipPath id="a">
      <path fill="#fff" d="M0 0h300v221H0z"/>
    </clipPath>
  </defs>
</svg>
