<svg width="186" height="180" viewBox="0 0 186 180" fill="none" xmlns="http://www.w3.org/2000/svg">
<circle cx="62.5" cy="176.5" r="3.5" fill="#4CAF50"/>
<circle cx="122" cy="171" r="1" fill="#4CAF50"/>
<circle cx="10" cy="133" r="5" fill="#4CAF50"/>
<circle cx="95.5" cy="91.5" r="70.5" fill="#4CAF50"/>
<circle cx="165.5" cy="160.5" r="2.5" fill="#4CAF50"/>
<circle cx="170.5" cy="110.5" r="2.5" fill="#4CAF50"/>
<circle cx="1" cy="75" r="1" fill="#4CAF50"/>
<path fill-rule="evenodd" clip-rule="evenodd" d="M109.807 80.49V84.3234C114.113 85.6674 117.25 89.5653 117.25 94.221V106.563C117.25 112.327 112.472 117 106.581 117H85.422C79.5284 117 74.75 112.327 74.75 106.563V94.221C74.75 89.5653 77.8899 85.6674 82.1932 84.3234V80.49C82.2186 73.037 88.3917 67 95.9619 67C103.634 67 109.807 73.037 109.807 80.49ZM96.0127 71.3476C101.17 71.3476 105.361 75.4468 105.361 80.49V83.7843H86.6388V80.4403C86.6642 75.4219 90.8558 71.3476 96.0127 71.3476ZM98.2228 103.137C98.2228 104.355 97.2321 105.324 95.9873 105.324C94.7679 105.324 93.7772 104.355 93.7772 103.137V97.6221C93.7772 96.4296 94.7679 95.4607 95.9873 95.4607C97.2321 95.4607 98.2228 96.4296 98.2228 97.6221V103.137Z" fill="white"/>
<circle cx="178.5" cy="27.5" r="7.5" fill="#4CAF50"/>
<circle cx="106.5" cy="4.5" r="2.5" fill="#4CAF50"/>
<circle cx="20" cy="10" r="10" fill="#4CAF50"/>
</svg>
