<svg xmlns="http://www.w3.org/2000/svg" width="83" height="80" fill="none" viewBox="0 0 83 80">
  <circle cx="27.5" cy="78.5" r="1.5" fill="#fff"/>
  <circle cx="54.5" cy="76.5" r=".5" fill="#fff"/>
  <circle cx="4" cy="59" r="2" fill="#fff"/>
  <circle cx="42.5" cy="40.5" r="31.5" fill="#fff"/>
  <circle cx="73" cy="71" r="1" fill="#fff"/>
  <circle cx="76" cy="49" r="1" fill="#fff"/>
  <circle cx=".5" cy="33.5" r=".5" fill="#fff"/>
  <path fill="url(#a)" d="M49.89 43.092a1.468 1.468 0 0 0-.425 1.293l1.185 6.56a1.44 1.44 0 0 1-.6 1.44 1.468 1.468 0 0 1-1.56.107l-5.905-3.08a1.508 1.508 0 0 0-.667-.175h-.361a1.079 1.079 0 0 0-.36.12l-5.907 3.095c-.292.147-.623.199-.947.147a1.482 1.482 0 0 1-1.186-1.695l1.186-6.56a1.492 1.492 0 0 0-.425-1.305l-4.815-4.667a1.44 1.44 0 0 1-.358-1.507 1.497 1.497 0 0 1 1.185-1l6.627-.961a1.483 1.483 0 0 0 1.173-.812l2.92-5.987a1.41 1.41 0 0 1 .267-.36l.12-.093a.895.895 0 0 1 .214-.173l.146-.054.226-.093h.562c.501.052.942.352 1.173.8l2.959 5.96a1.48 1.48 0 0 0 1.106.812l6.627.961c.56.08 1.028.467 1.213 1a1.448 1.448 0 0 1-.386 1.507l-4.987 4.72Z"/>
  <circle cx="79.5" cy="12.5" r="3.5" fill="#fff"/>
  <circle cx="47" cy="2" r="1" fill="#fff"/>
  <circle cx="8.5" cy="4.5" r="4.5" fill="#fff"/>
  <defs>
    <linearGradient id="a" x1="55.335" x2="23.864" y1="52.667" y2="43.061" gradientUnits="userSpaceOnUse">
      <stop stop-color="#F89300"/>
      <stop offset="1" stop-color="#FFBB58"/>
    </linearGradient>
  </defs>
</svg>
