<svg xmlns="http://www.w3.org/2000/svg" width="25" height="24" fill="none" viewBox="0 0 25 24">
  <path fill="#9E9E9E" fill-rule="evenodd" d="M5.415 2h3.38c1.41 0 2.54 1.15 2.54 2.561V7.97c0 1.42-1.13 2.56-2.54 2.56h-3.38c-1.4 0-2.54-1.14-2.54-2.56V4.561C2.875 3.15 4.015 2 5.415 2Zm0 11.47h3.38c1.41 0 2.54 1.14 2.54 2.56v3.41c0 1.41-1.13 2.56-2.54 2.56h-3.38c-1.4 0-2.54-1.15-2.54-2.56v-3.41c0-1.42 1.14-2.56 2.54-2.56ZM20.335 2h-3.38c-1.41 0-2.54 1.15-2.54 2.561V7.97c0 1.42 1.13 2.56 2.54 2.56h3.38c1.4 0 2.54-1.14 2.54-2.56V4.561c0-1.411-1.14-2.561-2.54-2.561Zm-3.38 11.47h3.38c1.4 0 2.54 1.14 2.54 2.56v3.41c0 1.41-1.14 2.56-2.54 2.56h-3.38c-1.41 0-2.54-1.15-2.54-2.56v-3.41c0-1.42 1.13-2.56 2.54-2.56Z" clip-rule="evenodd"/>
</svg>
