<svg xmlns="http://www.w3.org/2000/svg" width="25" height="24" fill="none" viewBox="0 0 25 24">
  <path fill="#9E9E9E" fill-rule="evenodd" d="M18.125 14.5c-2.75 0-2.75.208-2.75 2.75v.025c0 1.107 0 1.907.271 2.245.265.328 1.052.48 2.479.48s2.214-.153 2.479-.481c.271-.337.271-1.137.271-2.245 0-2.566 0-2.774-2.75-2.774Zm0 7c-1.686 0-2.951-.177-3.646-1.04-.604-.749-.604-1.771-.604-3.185l.75-.025h-.75c0-2.87.181-4.25 4.25-4.25s4.25 1.38 4.25 4.25c0 1.438 0 2.461-.604 3.21-.695.863-1.96 1.04-3.646 1.04Zm-11-7c-2.75 0-2.75.208-2.75 2.75v.025c0 1.107 0 1.907.271 2.245.265.328 1.052.48 2.479.48s2.214-.153 2.479-.481c.271-.337.271-1.137.271-2.245 0-2.566 0-2.774-2.75-2.774Zm0 7c-1.686 0-2.951-.177-3.646-1.04-.604-.749-.604-1.771-.604-3.185l.75-.025h-.75c0-2.87.181-4.25 4.25-4.25s4.25 1.38 4.25 4.25c0 1.438 0 2.461-.604 3.21-.695.863-1.96 1.04-3.646 1.04Zm11-18c-2.75 0-2.75.208-2.75 2.75v.025c0 1.107 0 1.907.271 2.245.265.328 1.052.48 2.479.48s2.214-.153 2.479-.481c.271-.337.271-1.137.271-2.245 0-2.566 0-2.774-2.75-2.774Zm0 7c-1.686 0-2.951-.177-3.646-1.04-.604-.749-.604-1.771-.604-3.185l.75-.025h-.75c0-2.87.181-4.25 4.25-4.25s4.25 1.38 4.25 4.25c0 1.438 0 2.461-.604 3.21-.695.863-1.96 1.04-3.646 1.04Zm-11-7c-2.75 0-2.75.208-2.75 2.75v.025c0 1.107 0 1.907.271 2.245.265.328 1.052.48 2.479.48s2.214-.153 2.479-.481c.271-.337.271-1.137.271-2.245 0-2.566 0-2.774-2.75-2.774Zm0 7c-1.686 0-2.951-.177-3.646-1.04-.604-.749-.604-1.771-.604-3.185l.75-.025h-.75c0-2.87.181-4.25 4.25-4.25s4.25 1.38 4.25 4.25c0 1.438 0 2.461-.604 3.21-.695.863-1.96 1.04-3.646 1.04Z" clip-rule="evenodd"/>
</svg>
