<svg xmlns="http://www.w3.org/2000/svg" width="20" height="21" fill="none" viewBox="0 0 20 21">
  <path fill="#212121" fill-rule="evenodd" d="M14.604 6.663v1.278c1.435.448 2.48 1.748 2.48 3.3v4.114c0 1.92-1.592 3.478-3.556 3.478H6.475c-1.964 0-3.557-1.557-3.557-3.478V11.24c0-1.551 1.047-2.85 2.481-3.299V6.663c.009-2.484 2.066-4.496 4.59-4.496 2.557 0 4.615 2.012 4.615 4.496Zm-4.598-3.047c1.719 0 3.116 1.366 3.116 3.047v1.098H6.88V6.647c.008-1.673 1.406-3.031 3.124-3.031Zm.736 10.597c0 .405-.33.728-.745.728a.73.73 0 0 1-.737-.729v-1.838c0-.397.33-.72.737-.72.415 0 .745.323.745.72v1.838Z" clip-rule="evenodd"/>
</svg>
