<svg xmlns="http://www.w3.org/2000/svg" width="25" height="24" fill="none" viewBox="0 0 25 24">
  <path fill="#9E9E9E" fill-rule="evenodd" d="M2.625 12.015C2.625 6.747 6.835 2 12.645 2c5.68 0 9.98 4.657 9.98 9.985 0 6.18-5.04 10.015-10 10.015-1.64 0-3.46-.44-4.92-1.302-.51-.31-.94-.54-1.49-.36l-2.02.6c-.51.16-.97-.24-.82-.78l.67-2.244c.11-.31.09-.641-.07-.902-.86-1.582-1.35-3.315-1.35-4.997Zm8.7 0c0 .711.57 1.282 1.28 1.292a1.283 1.283 0 0 0 0-2.564c-.7-.01-1.28.571-1.28 1.272Zm4.61.01c0 .701.57 1.282 1.28 1.282a1.283 1.283 0 0 0 0-2.564c-.71 0-1.28.571-1.28 1.282Zm-7.94 1.282c-.7 0-1.28-.58-1.28-1.282 0-.711.57-1.282 1.28-1.282.71 0 1.28.571 1.28 1.282a1.29 1.29 0 0 1-1.28 1.282Z" clip-rule="evenodd"/>
</svg>
