<svg width="24" height="25" viewBox="0 0 24 25" fill="none" xmlns="http://www.w3.org/2000/svg">
<path d="M18.7085 7.70986C18.6155 7.61613 18.5049 7.54174 18.3831 7.49097C18.2612 7.4402 18.1305 7.41406 17.9985 7.41406C17.8665 7.41406 17.7358 7.4402 17.6139 7.49097C17.492 7.54174 17.3814 7.61613 17.2885 7.70986L9.83849 15.1699L6.70849 12.0299C6.61196 11.9366 6.49802 11.8633 6.37317 11.8141C6.24831 11.7649 6.11499 11.7408 5.98081 11.7431C5.84663 11.7454 5.71422 11.7741 5.59114 11.8276C5.46806 11.8811 5.35672 11.9583 5.26348 12.0549C5.17025 12.1514 5.09693 12.2653 5.04773 12.3902C4.99852 12.515 4.97439 12.6484 4.97672 12.7825C4.97904 12.9167 5.00776 13.0491 5.06126 13.1722C5.11475 13.2953 5.19196 13.4066 5.28848 13.4999L9.12849 17.3399C9.22145 17.4336 9.33205 17.508 9.45391 17.5588C9.57577 17.6095 9.70647 17.6357 9.83849 17.6357C9.9705 17.6357 10.1012 17.6095 10.2231 17.5588C10.3449 17.508 10.4555 17.4336 10.5485 17.3399L18.7085 9.17986C18.81 9.08622 18.891 8.97257 18.9464 8.84607C19.0018 8.71957 19.0304 8.58296 19.0304 8.44486C19.0304 8.30676 19.0018 8.17015 18.9464 8.04365C18.891 7.91715 18.81 7.8035 18.7085 7.70986Z" fill="#212121"/>
</svg>
