<svg xmlns="http://www.w3.org/2000/svg" width="25" height="24" fill="none" viewBox="0 0 25 24">
  <mask id="a" width="23" height="22" x="1" y="1" maskUnits="userSpaceOnUse" style="mask-type:luminance">
    <path fill="#fff" fill-rule="evenodd" d="M1.625 1h21.493v21.494H1.625V1Z" clip-rule="evenodd"/>
  </mask>
  <g mask="url(#a)">
    <path fill="#9E9E9E" fill-rule="evenodd" d="M6.733 19.675c.58 0 1.127.22 1.706.453 3.547 1.64 7.742.894 10.475-1.838 3.606-3.608 3.606-9.477 0-13.083a9.186 9.186 0 0 0-6.54-2.707 9.186 9.186 0 0 0-6.54 2.708 9.288 9.288 0 0 0-1.854 10.44c.234.579.46 1.143.46 1.729 0 .585-.2 1.174-.378 1.694-.146.428-.367 1.074-.225 1.216.14.144.79-.083 1.218-.23.515-.176 1.1-.378 1.678-.382Zm5.616 2.819c-1.528 0-3.066-.323-4.505-.989-.424-.17-.82-.33-1.106-.33-.328.002-.769.154-1.195.301-.874.3-1.962.674-2.767-.128-.802-.803-.432-1.888-.134-2.761.147-.43.298-.874.298-1.21 0-.276-.133-.628-.337-1.135-1.873-4.045-1.007-8.92 2.17-12.095A10.674 10.674 0 0 1 12.373 1c2.873 0 5.573 1.117 7.601 3.146 4.192 4.192 4.192 11.012 0 15.204a10.783 10.783 0 0 1-7.625 3.144Z" clip-rule="evenodd"/>
  </g>
  <path fill="#9E9E9E" fill-rule="evenodd" d="M16.321 13.163a1.003 1.003 0 0 1-1.004-1c0-.553.443-1 .995-1h.01a1 1 0 1 1 0 2Zm-4.008 0a1.003 1.003 0 0 1-1.005-1c0-.553.443-1 .995-1h.01a1 1 0 1 1 0 2Zm-4.01 0a1.003 1.003 0 0 1-1.004-1c0-.553.443-1 .995-1h.01a1 1 0 1 1 0 2Z" clip-rule="evenodd"/>
</svg>
