<svg xmlns="http://www.w3.org/2000/svg" width="28" height="28" fill="none" viewBox="0 0 28 28">
  <path fill="#212121" fill-rule="evenodd" d="M14.288 25.667c-1.581 0-3.122-.018-4.647-.05-1.95-.038-3.3-1.303-3.521-3.3-.368-3.313-.996-11.123-1.002-11.201a.874.874 0 0 1 .801-.943c.475-.012.904.321.943.802.006.08.633 7.862.997 11.15.125 1.135.738 1.72 1.818 1.743 2.917.062 5.893.065 9.101.007 1.148-.023 1.769-.596 1.897-1.759.362-3.26.992-11.062.999-11.141.038-.48.464-.817.941-.802.482.04.842.461.803.943-.007.08-.64 7.909-1.003 11.193-.227 2.038-1.573 3.278-3.605 3.316a270.75 270.75 0 0 1-4.522.042M24.16 8.154H4.374a.875.875 0 0 1 0-1.75h19.784a.875.875 0 0 1 0 1.75" clip-rule="evenodd"/>
  <path fill="#212121" fill-rule="evenodd" d="M20.347 8.154a2.805 2.805 0 0 1-2.742-2.248l-.283-1.418c-.06-.216-.306-.404-.586-.404h-4.938a.617.617 0 0 0-.598.457l-.271 1.365a2.805 2.805 0 0 1-2.742 2.248.875.875 0 0 1 0-1.75 1.05 1.05 0 0 0 1.027-.842l.283-1.419c.288-1.087 1.23-1.809 2.3-1.809h4.94c1.07 0 2.012.722 2.288 1.757l.297 1.471c.097.488.528.842 1.025.842a.875.875 0 0 1 0 1.75" clip-rule="evenodd"/>
</svg>
