<svg xmlns="http://www.w3.org/2000/svg" width="32" height="33" fill="none" viewBox="0 0 32 33">
  <path fill="#000" fill-rule="evenodd" d="M13.44 25.29h-8.4a1 1 0 0 1 0-2h8.4a1 1 0 0 1 0 2Zm9.743-3.18c-1.186 0-2.152.955-2.152 2.129s.966 2.128 2.152 2.128a2.14 2.14 0 0 0 2.15-2.128 2.141 2.141 0 0 0-2.15-2.128Zm0 6.257c-2.29 0-4.152-1.852-4.152-4.128s1.863-4.128 4.152-4.128c2.288 0 4.15 1.852 4.15 4.128s-1.862 4.128-4.15 4.128Zm2.404-16h-8.4a1 1 0 0 1 0-2h8.4a1 1 0 0 1 0 2Z" clip-rule="evenodd"/>
  <mask id="a" width="9" height="9" x="4" y="7" maskUnits="userSpaceOnUse" style="mask-type:luminance">
    <path fill="#fff" fill-rule="evenodd" d="M4 7.167h8.301v8.256H4V7.167Z" clip-rule="evenodd"/>
  </mask>
  <g mask="url(#a)">
    <path fill="#000" fill-rule="evenodd" d="M8.15 9.167c-1.185 0-2.15.954-2.15 2.129 0 1.173.965 2.127 2.15 2.127 1.187 0 2.151-.954 2.151-2.127 0-1.175-.964-2.13-2.15-2.13Zm0 6.256c-2.287 0-4.15-1.851-4.15-4.127s1.863-4.13 4.15-4.13c2.29 0 4.151 1.854 4.151 4.13s-1.861 4.127-4.15 4.127Z" clip-rule="evenodd"/>
  </g>
</svg>
