<svg xmlns="http://www.w3.org/2000/svg" width="24" height="25" fill="none" viewBox="0 0 24 25">
  <path fill="#4285F4" d="M22.998 12.974c0-.923-.075-1.596-.237-2.295H12.223v4.166h6.185c-.124 1.035-.798 2.594-2.294 3.641l-.021.14 3.332 2.581.23.023c2.12-1.958 3.343-4.839 3.343-8.256Z"/>
  <path fill="#34A853" d="M12.223 23.949c3.03 0 5.574-.998 7.433-2.719l-3.542-2.744c-.948.661-2.22 1.123-3.892 1.123-2.968 0-5.487-1.958-6.385-4.665l-.132.011-3.464 2.682-.046.126c1.846 3.666 5.637 6.186 10.028 6.186Z"/>
  <path fill="#FBBC05" d="M5.839 14.944a6.91 6.91 0 0 1-.374-2.22c0-.773.137-1.521.361-2.22l-.006-.148L2.312 7.63l-.115.055A11.235 11.235 0 0 0 1 12.725c0 1.808.437 3.516 1.197 5.038l3.642-2.819Z"/>
  <path fill="#EB4335" d="M12.223 5.84c2.107 0 3.529.91 4.34 1.671l3.167-3.093C17.785 2.61 15.253 1.5 12.223 1.5c-4.39 0-8.182 2.52-10.028 6.186l3.63 2.819c.91-2.707 3.43-4.665 6.398-4.665Z"/>
</svg>
