<svg xmlns="http://www.w3.org/2000/svg" width="25" height="24" fill="none" viewBox="0 0 25 24">
  <path fill="#9E9E9E" fill-rule="evenodd" d="M12.125 3.5c-4.687 0-8.5 3.813-8.5 8.5 0 4.687 3.813 8.5 8.5 8.5 4.687 0 8.5-3.813 8.5-8.5 0-4.687-3.813-8.5-8.5-8.5Zm0 18.5c-5.514 0-10-4.486-10-10s4.486-10 10-10 10 4.486 10 10-4.486 10-10 10Z" clip-rule="evenodd"/>
  <path fill="#9E9E9E" fill-rule="evenodd" d="M15.556 15.693a.756.756 0 0 1-.384-.105l-3.77-2.25a.755.755 0 0 1-.366-.644V7.845a.75.75 0 0 1 1.5 0v4.423l3.405 2.03a.752.752 0 0 1-.385 1.395Z" clip-rule="evenodd"/>
</svg>
