<svg xmlns="http://www.w3.org/2000/svg" width="24" height="25" fill="none" viewBox="0 0 24 25">
  <mask id="a" width="18" height="21" x="3" y="2" maskUnits="userSpaceOnUse" style="mask-type:luminance">
    <path fill="#fff" fill-rule="evenodd" d="M3 2.512h17.053v19.853H3V2.512Z" clip-rule="evenodd"/>
  </mask>
  <g mask="url(#a)">
    <path fill="#212121" fill-rule="evenodd" d="M7.573 4.012a3.087 3.087 0 0 0-3.072 2.997v10.695a3.087 3.087 0 0 0 3.01 3.162h8.063a3.121 3.121 0 0 0 2.98-3.156V8.84l-4.636-4.828H7.573Zm.012 18.354h-.109a4.585 4.585 0 0 1-4.475-4.678V6.99c.058-2.481 2.107-4.48 4.57-4.48h6.667c.204 0 .4.084.541.23l5.065 5.278a.75.75 0 0 1 .21.519v9.166a4.617 4.617 0 0 1-4.45 4.66l-8.019.002Z" clip-rule="evenodd"/>
  </g>
  <path fill="#212121" fill-rule="evenodd" d="M13.789 16.608h-5.4a.75.75 0 0 1 0-1.5h5.4a.75.75 0 0 1 0 1.5Zm-2.045-3.752H8.388a.75.75 0 0 1 0-1.5h3.356a.75.75 0 0 1 0 1.5Zm7.555-3.372h-2.755a3.332 3.332 0 0 1-3.319-3.325V3.25a.75.75 0 0 1 1.5 0v2.909c0 1.004.818 1.822 1.82 1.825h2.753a.75.75 0 0 1 0 1.5Z" clip-rule="evenodd"/>
</svg>
