<svg xmlns="http://www.w3.org/2000/svg" width="32" height="33" fill="none" viewBox="0 0 32 33">
  <path fill="#000" fill-rule="evenodd" d="M22.568 14.1a1 1 0 0 1-1-1v-2.862A5.074 5.074 0 0 0 16.5 5.17h-.022c-1.35 0-2.616.52-3.572 1.468a5.025 5.025 0 0 0-1.5 3.577V13.1a1 1 0 0 1-2 0v-2.862a7.037 7.037 0 0 1 2.09-5.02c1.342-1.33 3.113-2.1 5.008-2.048 3.893 0 7.064 3.17 7.064 7.068V13.1a1 1 0 0 1-1 1Z" clip-rule="evenodd"/>
  <path fill="#000" fill-rule="evenodd" d="M11.392 14.005a4.06 4.06 0 0 0-4.056 4.056v5.719a4.06 4.06 0 0 0 4.056 4.056H21.58a4.06 4.06 0 0 0 4.056-4.056v-5.72a4.06 4.06 0 0 0-4.056-4.056H11.392Zm10.188 15.83H11.392a6.062 6.062 0 0 1-6.056-6.055v-5.72a6.062 6.062 0 0 1 6.056-6.056H21.58a6.062 6.062 0 0 1 6.056 6.056v5.719a6.062 6.062 0 0 1-6.056 6.056Z" clip-rule="evenodd"/>
  <path fill="#000" fill-rule="evenodd" d="M16.484 23.4a1 1 0 0 1-1-1v-2.96a1 1 0 0 1 2 0v2.96a1 1 0 0 1-1 1Z" clip-rule="evenodd"/>
</svg>
