<svg xmlns="http://www.w3.org/2000/svg" width="24" height="25" fill="none" viewBox="0 0 24 25">
  <path fill="#212121" fill-rule="evenodd" d="M16.923 10.7a.75.75 0 0 1-.75-.75V7.803a3.805 3.805 0 0 0-3.801-3.801h-.016c-1.013 0-1.962.39-2.68 1.1a3.768 3.768 0 0 0-1.124 2.684V9.95a.75.75 0 0 1-1.5 0V7.803A5.278 5.278 0 0 1 8.62 4.038c1.006-.997 2.334-1.574 3.755-1.536a5.306 5.306 0 0 1 5.298 5.3V9.95a.75.75 0 0 1-.75.75Z" clip-rule="evenodd"/>
  <path fill="#212121" fill-rule="evenodd" d="M8.542 10.629A3.045 3.045 0 0 0 5.5 13.67v4.289a3.045 3.045 0 0 0 3.042 3.042h7.641a3.045 3.045 0 0 0 3.042-3.042v-4.29a3.045 3.045 0 0 0-3.042-3.041H8.542Zm7.641 11.873H8.542A4.546 4.546 0 0 1 4 17.96v-4.29a4.546 4.546 0 0 1 4.542-4.54h7.641a4.546 4.546 0 0 1 4.542 4.542v4.289a4.546 4.546 0 0 1-4.542 4.542Z" clip-rule="evenodd"/>
  <path fill="#212121" fill-rule="evenodd" d="M12.362 17.675a.75.75 0 0 1-.75-.75v-2.22a.75.75 0 0 1 1.5 0v2.22a.75.75 0 0 1-.75.75Z" clip-rule="evenodd"/>
</svg>
