<svg xmlns="http://www.w3.org/2000/svg" width="32" height="33" fill="none" viewBox="0 0 32 33">
  <path fill="#000" fill-rule="evenodd" d="M15.664 6.5a.628.628 0 0 0-.579.35l-2.435 4.87a2.639 2.639 0 0 1-1.986 1.426l-5.451.786a.622.622 0 0 0-.52.43.59.59 0 0 0 .161.62l3.942 3.787c.628.604.913 1.475.764 2.327l-.928 5.346a.595.595 0 0 0 .245.596.631.631 0 0 0 .69.052l4.873-2.526a2.67 2.67 0 0 1 2.448 0l4.872 2.525c.328.17.592.021.692-.05a.595.595 0 0 0 .245-.597l-.93-5.346a2.603 2.603 0 0 1 .763-2.327l3.942-3.787a.585.585 0 0 0 .161-.62.618.618 0 0 0-.519-.43l-5.45-.786a2.637 2.637 0 0 1-1.986-1.428l-2.437-4.866a.626.626 0 0 0-.577-.351ZM9.26 29.167a2.65 2.65 0 0 1-1.565-.515 2.593 2.593 0 0 1-1.032-2.553l.928-5.347a.606.606 0 0 0-.18-.541l-3.942-3.787a2.585 2.585 0 0 1-.678-2.675 2.613 2.613 0 0 1 2.137-1.797l5.45-.785a.634.634 0 0 0 .483-.343l2.436-4.87A2.629 2.629 0 0 1 15.664 4.5a2.63 2.63 0 0 1 2.367 1.455l2.437 4.868a.634.634 0 0 0 .481.344l5.451.785a2.613 2.613 0 0 1 2.137 1.797c.307.954.046 1.98-.68 2.675l-3.941 3.787a.604.604 0 0 0-.179.54l.93 5.348a2.593 2.593 0 0 1-1.035 2.553 2.631 2.631 0 0 1-2.793.21l-4.871-2.523a.664.664 0 0 0-.61 0l-4.87 2.525c-.39.203-.81.303-1.228.303Z" clip-rule="evenodd"/>
</svg>
