<svg width="24" height="25" viewBox="0 0 24 25" fill="none" xmlns="http://www.w3.org/2000/svg">
<mask id="mask0_84_13546" style="mask-type:luminance" maskUnits="userSpaceOnUse" x="2" y="2" width="20" height="22">
<path fill-rule="evenodd" clip-rule="evenodd" d="M2 2.50098H21.2849V23.222H2V2.50098Z" fill="white"/>
</mask>
<g mask="url(#mask0_84_13546)">
<path fill-rule="evenodd" clip-rule="evenodd" d="M7.20232 17.941C7.43132 17.941 7.66032 17.97 7.88432 18.03C8.56032 18.212 9.14732 18.664 9.49532 19.271C9.72132 19.652 9.84632 20.097 9.85032 20.551C9.85032 21.201 10.3723 21.722 11.0143 21.722H12.2673C12.9063 21.722 13.4283 21.204 13.4313 20.565C13.4273 19.859 13.7033 19.188 14.2083 18.683C14.7063 18.185 15.4023 17.886 16.0983 17.906C16.5543 17.917 16.9933 18.04 17.3803 18.26C17.9373 18.579 18.6483 18.389 18.9703 17.839L19.6343 16.732C19.7823 16.477 19.8253 16.157 19.7463 15.862C19.6683 15.567 19.4723 15.311 19.2083 15.16C18.5903 14.804 18.1493 14.23 17.9663 13.542C17.7853 12.867 17.8843 12.13 18.2373 11.523C18.4673 11.123 18.8043 10.786 19.2083 10.554C19.7503 10.237 19.9403 9.52798 19.6253 8.97598C19.6123 8.95398 19.6003 8.93098 19.5903 8.90698L19.0043 7.89098C18.6853 7.33598 17.9753 7.14498 17.4183 7.46198C16.8163 7.81798 16.1003 7.91998 15.4123 7.73898C14.7253 7.56098 14.1493 7.12598 13.7903 6.51198C13.5603 6.12798 13.4353 5.68098 13.4313 5.22598C13.4403 4.88398 13.3203 4.57698 13.1023 4.35198C12.8853 4.12798 12.5803 4.00098 12.2673 4.00098H11.0143C10.7043 4.00098 10.4143 4.12198 10.1953 4.33998C9.97732 4.55898 9.85832 4.84998 9.86032 5.15998C9.83932 6.62198 8.64432 7.79898 7.19732 7.79898C6.73332 7.79398 6.28632 7.66898 5.89832 7.43698C5.35332 7.12698 4.64132 7.31798 4.32232 7.87298L3.64532 8.98598C3.33532 9.52398 3.52532 10.235 4.07732 10.556C4.89632 11.03 5.40732 11.914 5.40732 12.862C5.40732 13.81 4.89632 14.693 4.07532 15.168C3.52632 15.486 3.33632 16.193 3.65432 16.743L4.28532 17.831C4.44132 18.112 4.69632 18.315 4.99132 18.398C5.28532 18.48 5.60932 18.445 5.87932 18.295C6.27632 18.062 6.73832 17.941 7.20232 17.941ZM12.2673 23.222H11.0143C9.54532 23.222 8.35032 22.028 8.35032 20.559C8.34832 20.378 8.29632 20.19 8.19932 20.027C8.04232 19.753 7.78832 19.557 7.49532 19.479C7.20432 19.401 6.88532 19.444 6.62332 19.596C5.99532 19.946 5.25632 20.031 4.58032 19.841C3.90532 19.65 3.32232 19.186 2.98032 18.571L2.35532 17.494C1.62432 16.226 2.05932 14.601 3.32532 13.869C3.68432 13.662 3.90732 13.276 3.90732 12.862C3.90732 12.448 3.68432 12.061 3.32532 11.854C2.05832 11.118 1.62432 9.48898 2.35432 8.22098L3.03232 7.10798C3.75332 5.85398 5.38332 5.41198 6.65432 6.14198C6.82732 6.24498 7.01532 6.29698 7.20632 6.29898C7.82932 6.29898 8.35032 5.78498 8.36032 5.15298C8.35632 4.45598 8.63132 3.78698 9.13232 3.28198C9.63532 2.77798 10.3033 2.50098 11.0143 2.50098H12.2673C12.9833 2.50098 13.6793 2.79498 14.1783 3.30598C14.6763 3.81998 14.9513 4.52498 14.9303 5.23998C14.9323 5.40098 14.9853 5.58698 15.0813 5.74998C15.2403 6.01998 15.4913 6.20998 15.7893 6.28798C16.0873 6.36198 16.3993 6.32198 16.6643 6.16498C17.9443 5.43398 19.5733 5.87198 20.3043 7.14198L20.9273 8.22098C20.9433 8.24998 20.9573 8.27798 20.9693 8.30698C21.6313 9.55798 21.1893 11.133 19.9593 11.852C19.7803 11.955 19.6353 12.099 19.5353 12.273C19.3803 12.542 19.3373 12.862 19.4153 13.156C19.4953 13.456 19.6863 13.705 19.9553 13.859C20.5623 14.208 21.0153 14.796 21.1963 15.475C21.3773 16.153 21.2783 16.889 20.9253 17.496L20.2613 18.602C19.5303 19.858 17.9013 20.293 16.6343 19.561C16.4653 19.464 16.2703 19.411 16.0763 19.406H16.0703C15.7813 19.406 15.4843 19.529 15.2683 19.744C15.0493 19.963 14.9293 20.255 14.9313 20.565C14.9243 22.034 13.7293 23.222 12.2673 23.222Z" fill="#212121"/>
</g>
<path fill-rule="evenodd" clip-rule="evenodd" d="M11.6438 10.9746C10.6038 10.9746 9.75781 11.8216 9.75781 12.8616C9.75781 13.9016 10.6038 14.7466 11.6438 14.7466C12.6838 14.7466 13.5298 13.9016 13.5298 12.8616C13.5298 11.8216 12.6838 10.9746 11.6438 10.9746ZM11.6438 16.2466C9.77681 16.2466 8.25781 14.7286 8.25781 12.8616C8.25781 10.9946 9.77681 9.47461 11.6438 9.47461C13.5108 9.47461 15.0298 10.9946 15.0298 12.8616C15.0298 14.7286 13.5108 16.2466 11.6438 16.2466Z" fill="#212121"/>
</svg>
