<svg xmlns="http://www.w3.org/2000/svg" width="20" height="21" fill="none" viewBox="0 0 20 21">
  <path fill="#212121" fill-rule="evenodd" d="M10.147 13.181h-.291c-2.003 0-3.627-1.604-3.627-3.58V5.747c0-1.978 1.624-3.581 3.627-3.581h.29c2.004 0 3.628 1.603 3.628 3.58V9.6c0 1.977-1.624 3.581-3.627 3.581Zm5.323-3.695c0-.441.362-.797.807-.797.446 0 .808.356.808.797 0 3.586-2.75 6.548-6.276 6.945v1.605c0 .44-.362.797-.807.797a.802.802 0 0 1-.808-.797v-1.605c-3.526-.397-6.276-3.359-6.276-6.945 0-.441.362-.797.807-.797.446 0 .807.356.807.797 0 2.977 2.454 5.4 5.47 5.4 3.015 0 5.468-2.423 5.468-5.4Z" clip-rule="evenodd"/>
</svg>
